<?xml version="1.0" standalone="no"?><!DOCTYPE svg PUBLIC "-//W3C//DTD SVG 1.1//EN" "http://www.w3.org/Graphics/SVG/1.1/DTD/svg11.dtd"><svg t="1586772173027" class="icon" viewBox="0 0 1024 1024" version="1.1" xmlns="http://www.w3.org/2000/svg" p-id="6775" xmlns:xlink="http://www.w3.org/1999/xlink" width="32" height="32"><defs><style type="text/css"></style></defs><path d="M694.530416 773.13953l-9.19976-33.047179-22.459747 90.661313a51.395302 51.395302 0 0 1-35.976711 37.158803 52.320418 52.320418 0 0 1-13.773941 1.850231 51.395302 51.395302 0 0 1-36.336479-15.058823l-75.037141-74.83156H420.233688a51.395302 51.395302 0 0 1 0-102.790605h102.790604a51.395302 51.395302 0 0 1 36.336479 15.058824l25.697651 25.697651 47.489259-191.755872a51.395302 51.395302 0 0 1 49.133909-39.06043h0.77093a51.395302 51.395302 0 0 1 49.493676 37.569966l51.395302 183.429833h22.048584a446.47099 446.47099 0 0 0 51.703674-195.867496c0.308372-9.970689 0.411162-20.558121 0.411163-31.50532l-4.882554-365.677575-44.970889 4.882554a312.534832 312.534832 0 0 1-141.182895-19.787192C608.340494 78.532022 547.23148 38.597872 516.394298 16.652078a93.128287 93.128287 0 0 0-110.756876 3.340695C374.903032 44.251355 314.153784 87.988757 250.166633 107.930135c-49.031118 15.418591-100.272234 19.735796-144.266613 12.232081L58.513551 112.24734 53.836579 481.162819v0.513953c0 15.418591 0.411162 30.837181 1.233487 44.868099a448.167035 448.167035 0 0 0 179.421 332.322023l219.406545 165.133106 220.999799-164.927525a465.127484 465.127484 0 0 0 56.534833-49.853443 51.395302 51.395302 0 0 1-36.901827-36.079502zM291.077294 461.01586a41.116242 41.116242 0 0 1 41.116241-41.116241h82.232484v-82.232484a41.116242 41.116242 0 0 1 82.232483 0v82.232484h82.232484a41.116242 41.116242 0 0 1 0 82.232483h-82.232484v82.232483a41.116242 41.116242 0 1 1-82.232483 0v-82.232483h-82.232484a41.116242 41.116242 0 0 1-41.116241-41.116242z" p-id="6776" fill="#1296db"></path><path d="M944.46577 733.616543h-180.911464l-56.534832-202.189119a25.697651 25.697651 0 0 0-49.699257 0.719534l-58.436459 235.955833-57.665529-57.76832a25.697651 25.697651 0 0 0-18.193937-7.555109h-102.790604a25.697651 25.697651 0 0 0 0 51.395302h92.151777l82.232483 82.232483a25.697651 25.697651 0 0 0 18.142542 7.503714 26.160209 26.160209 0 0 0 6.88697-0.925115 25.697651 25.697651 0 0 0 18.039751-18.6051l45.947401-185.331459 35.411363 126.997792a25.697651 25.697651 0 0 0 24.772535 18.759285h200.441679a25.697651 25.697651 0 0 0 0-51.395302z" p-id="6777" fill="#1296db"></path></svg>