<?xml version="1.0" standalone="no"?><!DOCTYPE svg PUBLIC "-//W3C//DTD SVG 1.1//EN" "http://www.w3.org/Graphics/SVG/1.1/DTD/svg11.dtd"><svg t="1586772142481" class="icon" viewBox="0 0 1024 1024" version="1.1" xmlns="http://www.w3.org/2000/svg" p-id="6542" xmlns:xlink="http://www.w3.org/1999/xlink" width="32" height="32"><defs><style type="text/css"></style></defs><path d="M750.036 753.656c-8.088 2.064-16.384 3.524-24.224 6.28-15.252 5.384-28.072-0.428-40.636-7.788-4.084-2.4-8.748-4.968-11.168-8.736-2.26-3.532-3.376-9.188-2.204-13.064 0.824-2.704 6.136-5.172 9.752-5.756 33.428-5.4 66.92-10.42 100.42-15.452 6.9-1.056 13.896-1.58 20.788-2.756 3.044-0.516 7.26-1.212 8.572-3.312 2.048-3.288 2.396-7.82 2.576-11.86 0.024-0.516-5.372-2.172-8.032-1.764-16.048 2.392-31.556 2.884-46.26-6.084-5.252-3.188-9.824-6.756-7.528-12.532 1.504-3.752 6.512-7.508 10.64-8.572 13.46-3.5 27.256-5.712 40.904-8.556 2.456-0.508 5.864-1 6.912-2.688 2.052-3.336 2.748-7.516 4-11.328-2.844-0.556-5.8-1.928-8.496-1.532-9.988 1.492-20.028 5.524-29.824 4.916-13.196-0.804-26.328-5.08-36.216-14.852-5.988-5.928-1.136-17.884 7.68-19.256 12.524-1.984 25.164-3.252 37.74-4.908 7.512-0.984 15.084-1.812 22.436-3.516 1.688-0.392 3.532-4.048 3.72-6.328 1.292-15.744-2.076-30.18-12.292-42.772-6.056-7.444-1.944-18.056 7.684-17.788 15.124 0.416 30.368 2.132 45.204 5.092 10.364 2.072 14.44 10.836 12.248 21.264-1.62 7.72-3.568 15.368-5.588 23.008-1.78 6.672 0.508 9.212 7.376 7.592 7.388-1.752 14.82-3.384 22.056-5.624 14.136-4.408 26.228-0.624 35.132 10.312 3.416 4.196 4.516 11.592 3.836 17.188-0.324 2.82-6.756 6.14-10.892 7.024-20.088 4.288-40.316 7.828-60.996 11.72v9.656c10.768 0 20.964-0.452 31.076 0.196 4.912 0.304 10.02 1.992 14.432 4.252 7.208 3.696 8.812 13.1 1.984 16.976-11.096 6.296-23.52 10.32-35.436 15.172-2.592 1.064-6.316 0.82-7.896 2.608-3.072 3.476-4.992 7.96-7.392 12.04 3.612 1.124 7.48 3.696 10.788 3.124 23.704-4.14 47.336-8.752 70.932-13.556 23.52-4.764 45.832-2.484 64.944 12.868 5.064 4.064 10.648 10.532 7.572 19.132-3.064 8.584-10.392 11.056-18.1 11.288-17.316 0.524-34.676-0.148-52.016 0.264-17.884 0.42-35.86 0.524-53.58 2.64-20.352 2.428-40.5 6.712-60.672 10.54-22.08 4.188-44.092 8.72-66.112 13.172-1.084 0.212-2.008 1.124-3.852 2.204 16.924 9.18 33.784 9.46 50.516 4.024 15.332-4.968 29.804-12.92 45.328-16.968 9.828-2.572 21.2-1.928 31.32 0.092 9.1 1.812 17.52 7.32 26.12 11.428 10.564 5.048 12.788 11.656 9.74 22.908-4.384 16.188-8.404 32.092-3.224 49.532 3.372 11.312 2.04 24.024 2.82 36.116 0.924 14.592 1.98 29.18 2.748 43.788 1.052 20.04 2.344 40.092 2.68 60.156 0.292 17.304-16.352 41.22-31.436 46.82-8.968 3.336-15.128 0.444-20.284-7.532-6.528-10.072-13.864-19.64-21.22-29.132-5.24-6.796-11.996-12.556-16.32-19.804-2.368-3.968-1.96-10.32-0.836-15.14 0.3-1.288 8.072-1.908 12.004-1.04 6.776 1.5 13.304 4.212 19.808 6.812 8.596 3.436 10.768 2.22 10.84-7.384 0.132-18.296 0.972-36.656-0.164-54.884-1.888-30.092-4.908-60.108-7.964-90.116-0.56-5.516-2.748-11.304-5.772-15.928-1.716-2.592-7.048-4.852-10.104-4.196-16.384 3.436-32.552 7.952-48.824 11.868-8.932 2.156-15.744 20.048-9.604 26.764 1.284 1.42 5.216 1.072 7.74 0.584 9.94-1.908 19.736-4.72 29.736-6.116 4.496-0.624 9.668 0.476 13.892 2.288 3.872 1.664 9.764 5.516 9.616 8.108-0.244 4.58-3.332 10.868-7.152 13.048-14.196 8.056-29.876 12.156-46.292 13.244-2.824 0.188-7.668 1.744-7.872 3.172-0.736 5.22-0.048 10.696 0.712 15.976 0.052 0.36 5.088 0.4 7.72-0.032 12.768-2.1 25.444-5.416 38.296-6.236 8.424-0.548 16.888 2.632 21.204 11.616 4.432 9.236 0.984 18.124-8.996 19.728-15.624 2.492-31.404 4.468-47.188 5.408-15.18 0.892-14.852 0.28-17.956 14.492a2181.12 2181.12 0 0 1-15.852 67.244c-1.524 6.016-4.04 12.064-12.104 13.008-7.992 0.952-12.66-2.352-15.72-9.4-7.44-17.092-12.568-33.32-5.368-52.984 6.648-18.164 7.124-38.476 11.836-57.46 5.696-22.96 5.472-46.132 5.024-69.368-0.128-6.812-1.752-13.9-4.176-20.304-3.84-10.096-3.788-14.036 2.736-24.348zM480.792 346.86c-8.56-7.652-27.612-7.264-20.648-27.004-6.48 0.368-12.628 1.148-18.728 0.888-3.148-0.128-8.608-1.692-8.872-3.3-0.728-4.32-0.828-10.452 1.7-13.292 10.004-11.24 20.496-22.224 31.976-31.92 11.8-9.972 18.648-22.696 20.824-36.96 2.296-15.028 1.42-30.472-7.408-44.352-3.276-5.148-6.472-11.064-1.012-17.64 5.904-7.12 13.42-8.06 20.824-5.252 30.516 11.624 55.968 1.472 79.176-17.816 13.492-11.208 35.168-11.308 52.672 1.148 3.808 2.704 8.196 5.392 10.536 9.192 7.504 12.132 3.512 22.068-7.816 31.052-6.764 5.356-13.048 13.696-15.316 21.868-4.76 17.156 8.14 25.6 27.476 20.54 13.704-3.584 27.812-6.536 41.896-7.432 14.676-0.932 29.172 14.752 27.616 28.892-0.536 4.884-4.192 11.56-8.268 13.468-8.404 3.944-17.96 6.592-27.244 7.3-15 1.144-30.144 0.224-45.232 0.324-3.28 0.024-6.564 0.66-12.576 1.3 11.556 6.436 20.584 11.172 29.304 16.404 12.876 7.716 12.952 20.984 4.452 33.148-10.992 15.736-19.364 33.336-28.576 50.296-4.656 8.584-9.084 17.336-12.8 26.352-1.252 3.036-1.428 9.016 0.392 10.404 15.6 11.964 31.468 23.652 47.836 34.52a252.336 252.336 0 0 0 76.34 34.096c18.916 4.904 38.376 7.736 57.412 12.204 5.332 1.244 10.876 4.132 14.8 7.86 2.304 2.18 3.544 9.112 1.9 11.072-3.184 3.788-8.48 6.736-13.404 7.928-14.772 3.548-29.72 6.452-44.708 8.9-14.356 2.352-28.852 4.04-43.312 5.64-25.46 2.836-45.956-8.72-64.288-24.188-16.336-13.784-31.304-29.184-47.064-43.668-5.836-5.364-11.832-10.732-18.488-14.932-2.192-1.38-7.616-0.26-10.004 1.664-23.84 19.348-50.768 32.612-80.112 40.968-21.932 6.256-43.94 12.876-67.228 10.896-7.004-0.584-14.056-3.112-14.84-10.94-0.736-7.308 3.516-12.284 11.652-13.66 4.932-0.828 9.66-3.168 14.324-5.184 23.032-9.944 46.74-18.648 68.72-30.556 12.548-6.788 22.372-18.708 33.016-28.744 1.46-1.368 1.836-6.648 0.628-7.644a900.244 900.244 0 0 0-36.6-29.008c-4.544-3.424-9.728-6.052-14.808-8.7-17.624-9.208-18.184-11.348-6.12-26.132z m91.64-144.728c-9.924 1.992-21.796 4.24-33.572 6.872-1.4 0.312-3.06 2.512-3.356 4.076a291.8 291.8 0 0 0-3.46 21.5c-3.896 32.152-19.48 56.496-47.988 72.284-2.604 1.436-5.172 2.924-7.756 4.38l1.036 3.348c5.164-0.928 10.34-1.78 15.48-2.82 16.74-3.38 33.836-5.616 50.104-10.572 18.12-5.52 35.36-13.816 53.208-20.316 5.544-2.016 11.792-2.112 17.724-3.084 0.036-0.928 0.08-1.852 0.12-2.78-3.156-0.596-6.256-1.348-9.436-1.76-12.276-1.584-26.352-11.56-27.84-21.924-2.188-15.468-2.776-31.172-4.264-49.204zM518.604 345.848c10.332 7.552 18.14 13.232 25.916 18.96 7.8 5.76 15.556 11.58 24.464 18.216 5.508-12.468 11.152-24.036 15.588-36.044 1.344-3.628 0.66-9.476-1.56-12.424-1.4-1.848-7.448-0.372-11.372-0.068-2.16 0.168-4.24 1.064-6.38 1.516-14.656 3.112-29.316 6.184-46.656 9.844zM189.484 813.736c-4.596-11.788-9.116-23.968-14.208-35.892-0.832-1.968-4.132-4.008-6.36-4.08-12.188-0.42-24.408 0.08-36.58-0.328-6.784-0.22-7.508 4.584-9.228 9.016-12.764 32.876-49.692 46.744-80.06 30.08-22.06-12.1-32.816-36.624-27.332-62.296 4.98-23.296 25.344-41.024 49.544-43.1 24.884-2.132 48.376 11.812 57.04 35.484 3.196 8.736 7.664 11.048 16.128 10.5 9.912-0.648 19.94 0.416 29.824-0.468 3.5-0.304 8.328-3.32 9.74-6.4 5.396-11.696 12.78-21.296 23.12-29.008 2.316-1.72 4.056-6.436 3.568-9.352-4.916-29.072-10.56-58.008-15.468-87.08-1.08-6.4-5.072-7.056-9.828-8.368-31.432-8.744-47.56-39.624-35.836-68.32 8-19.58 27.856-32.48 48.568-31.532 22.292 1.02 40.928 15.556 46.836 36.548 5.76 20.476-1.992 42.72-20.584 54.744-7.392 4.78-9.444 9.016-7.536 17.72 5.484 25.04 9.936 50.312 14.416 75.556 1.22 6.892 3.824 9.524 11.316 9.188 17.684-0.804 32.24 7.008 45.328 20.188 10.296-9.928 20.392-19.204 29.776-29.132 1.732-1.828 1.308-6.444 0.76-9.58-4.2-24.204 5.596-45.772 25.796-56.204 19.764-10.204 44.056-6.444 59.56 9.22 17.556 17.736 19.184 47.484 3.668 66.952-16.148 20.264-45.868 25.22-67.708 11.236-2.412-1.548-4.712-3.264-8.116-5.648-9.7 9.796-23.16 18.008-27.908 29.744-4.364 10.804 0.532 25.4 1.72 38.304 0.088 0.908 3.26 1.648 5.068 2.288 24.164 8.584 48.444 16.892 72.444 25.892 6.304 2.36 8.864 0.6 12.204-4.548 17.84-27.58 50.628-37.148 79.092-23.172 12.052 5.916 23.892 12.54 19.828 30.304 13.184-1.304 14.084 8.228 15.6 16.508 6.268 34.22-18.592 67.08-53.844 71.592-34 4.352-66.352-22.252-68.168-56.696-0.4-7.64-3.008-11.304-10.228-13.736-24.616-8.252-49.068-17.016-73.448-25.928-5.56-2.04-9.112-1.664-13.216 3.156-17.648 20.752-39.848 28.024-66.52 21.352-2.428-0.6-6.244-0.556-7.792 0.916-11.584 10.984-22.756 22.384-34.58 34.18 13.904 13.244 23.892 27.744 28.22 45.852 10.94 45.788-18.4 92.704-64.444 102.516-47.396 10.108-92.86-21.084-101.404-69.584-8.02-45.548 24.688-90.936 70.984-96.592 12.316-1.516 25.192 1.908 37.836 2.664 3.716 0.212 8.864 0.436 11.056-1.704 11.04-10.72 21.288-22.212 31.356-32.952z m-4.056 115.216c0.016-34.892-28.716-63.564-63.612-63.516-34.86 0.064-63.788 28.868-63.8 63.54-0.016 34.452 29.344 63.796 63.832 63.772 34.636 0.004 63.56-29.036 63.58-63.796z m50.836-119.18c21.656-0.016 40.624-18.828 40.852-40.54 0.244-21.68-19.556-41.564-41.224-41.392-21.632 0.172-40.48 19.08-40.676 40.796-0.192 22.216 18.696 41.152 41.048 41.136z m246.036 28.196c0.156-22.46-18.544-41.492-40.664-41.42-21.492 0.064-40.712 18.976-41.144 40.516-0.444 21.712 19.112 41.304 41.196 41.304 22.044-0.016 40.468-18.344 40.612-40.4z m-446.804-74.28c0.168 19.444 15.38 34.764 34.684 34.952 19.268 0.188 35.568-15.992 35.588-35.36 0.016-19.384-16.224-35.58-35.516-35.436-19.668 0.14-34.94 15.884-34.756 35.844z m296.928-86.272c-0.068 16.28 12.78 29.376 28.972 29.54 16.52 0.164 30.088-13.344 29.912-29.78-0.168-16.032-13.504-29.1-29.664-29.04-16.272 0.06-29.156 12.956-29.22 29.28z m-171.376-113.988c0.088 16.116 13.28 29.42 29.268 29.508 15.72 0.092 29.4-13.484 29.572-29.36 0.168-16.476-13.376-29.936-29.916-29.752-16.224 0.2-29.008 13.292-28.924 29.604z" fill="#1296db" p-id="6543"></path><path d="M370.18 318.484c-5.532 3.948-11.252 7.296-16.084 11.624-13.8 12.348-28.332 24.124-40.556 37.916-16.288 18.376-38.864 14.248-56.236 0.268-4.72-3.796-8.952-8.304-12.976-12.876-9.568-10.888-5.364-26.084 8.248-28.144 27.556-4.172 52.188-15.848 76.536-28.38 15.56-8.004 30.876-16.48 46.14-25.052 2.38-1.344 5.26-4.168 5.52-6.564 1.404-13.292 1.916-26.672 3.044-40 0.74-8.78 2.032-17.516 2.996-26.284 0.244-2.224 0.628-4.584 0.168-6.712-5.324-24.952-1.992-51.268-12.708-75.44-4.916-11.112 5.06-21.564 17.284-19.148 12.716 2.512 25.324 6.584 38.136 7.404 12.904 0.824 26.052-1.148 39.008-2.608 10.02-1.136 19.904-3.404 29.856-5.096 17.428-2.956 34.876-5.864 52.316-8.776 7.192-1.196 14.38-2.376 21.564-3.564-0.144-0.828-0.268-1.648-0.396-2.468-10.372-5.74-20.9-11.208-31.076-17.284-14.7-8.8-25.824-20.996-33.392-36.488-7.08-14.508-0.916-26.288 15-26.8 6.108-0.2 12.272 1.8 18.42 2.836 6.244 1.048 12.46 2.348 18.736 3.208 36.428 5.008 47.136 43.496 28.556 74.076 8.932-1.232 16.432-2.028 23.82-3.352 14.604-2.604 29.492-4.384 43.644-8.584 17.36-5.152 31.744 1.312 45.568 9.368 4.992 2.92 11.172 10.872 10.284 15.188-1.332 6.436-7.488 15.252-13.256 16.796-21.008 5.604-42.68 8.9-64.212 12.492-18.736 3.124-37.6 5.52-56.428 8.104-9.124 1.256-18.252 2.396-27.424 3.268-14.504 1.38-29.024 2.852-43.584 3.648-21.364 1.164-42.752 1.868-64.14 2.512-5.64 0.168-8.548 2.268-7.968 8.036 0.876 8.764 2.432 17.5 2.696 26.276 0.144 4.84-2.376 9.712-2.6 14.624-0.448 9.612 0.432 19.3-0.256 28.888-1.56 21.532-1.92 43.38-6.112 64.432a866.16 866.16 0 0 1-23.36 91.332c-8.22 26.084-22.928 49.384-39.492 71.184-9.016 11.876-18.248 23.724-28.612 34.404-18.228 18.776-41.456 30.312-64.876 41.068-4.556 2.092-11.048 1.916-15.964 0.468-2.448-0.712-5.516-7.476-4.528-10.08 2.08-5.444 6.128-10.44 10.292-14.712 14.332-14.7 29.784-28.364 43.392-43.688 9.812-11.048 17.964-23.74 25.724-36.396 7.936-12.964 15.644-26.308 21.368-40.332 7.604-18.652 13.208-38.128 19.556-57.276 0.172-0.628-0.792-1.636-1.636-3.316zM650.056 682.28v11.428c0 53.296 1.184 106.624-0.48 159.884-0.924 29.936-6.424 59.736-10.208 89.556-0.988 7.772-3.132 15.392-4.952 23.032-1.628 6.9-4.736 12.256-12.792 13.548-9.488 1.516-15.056-4.548-18.692-10.916-13.476-23.584-17.988-47.756-7.652-74.756 6.58-17.164 9.668-36.1 11.572-54.524 3.168-30.64 4.624-61.508 5.848-92.32 1.336-33.264 3.404-66.672 1.68-99.828-1.508-29.164-4.484-58.788-19.16-85.508-1.884-3.444-1.408-11.984 0.624-13.032 6.116-3.164 13.704-5.572 20.412-4.952 8.976 0.828 18.092 3.828 26.38 7.584 15.116 6.852 21.168 14.836 14.744 34.968-5.572 17.416-5.364 36.736-6.676 55.312-0.144 2.056 6.188 5.256 9.964 6.812 10.796 4.428 21.916 8.008 32.728 12.416 13.808 5.616 19.112 28.04 17.356 38.968-1.916 11.96-9.872 16.212-21.06 9.812-10.9-6.236-20.416-14.928-30.448-22.632-2.416-1.844-4.54-4.048-6.796-6.092l-2.392 1.24zM525.34 779.572c-2.268-14.812 7.588-25.368 12.612-37.54 6.744-16.32 12.784-32.92 19.556-49.252 1.768-4.296 4.372-8.772 7.844-11.744 4.652-3.968 11.76-0.436 13.888 5.728 5.704 16.648 9.196 33.772 7.512 51.32-1.896 19.584-7.344 38.304-18.652 54.82a828.068 828.068 0 0 1-13.084 18.484c-4.04 5.572-10.424 8.244-15.884 5.204-4.64-2.584-8.688-8.384-10.384-13.6-2.408-7.4-2.388-15.576-3.408-23.42z" fill="#1296db" p-id="6544"></path><path d="M339.352 236.692c-15.596-0.716-23.064-12.528-31.032-21.856-8.336-9.748-14.532-21.412-20.98-32.62-3.096-5.404-5.36-11.544-6.712-17.648-2.588-11.68 8.592-21.472 21.264-17.764 18.584 5.436 37.012 11.416 50.484 27.132 15.196 17.744 11.896 41.688-1.288 57.956-2.344 2.88-7.756 3.268-11.736 4.8z" fill="#1296db" p-id="6545"></path></svg>