<?xml version="1.0" standalone="no"?><!DOCTYPE svg PUBLIC "-//W3C//DTD SVG 1.1//EN" "http://www.w3.org/Graphics/SVG/1.1/DTD/svg11.dtd"><svg t="1584336594252" class="icon" viewBox="0 0 1024 1024" version="1.1" xmlns="http://www.w3.org/2000/svg" p-id="6465" xmlns:xlink="http://www.w3.org/1999/xlink" width="16" height="16"><defs><style type="text/css"></style></defs><path d="M512.4 193c-176.8 0-320.2 143.3-320.2 320.2 0 176.8 143.3 320.2 320.2 320.2 176.8 0 320.2-143.3 320.2-320.2 0-176.8-143.4-320.2-320.2-320.2z m0 597.6c-153 0-277.4-124.5-277.4-277.4 0-153 124.5-277.4 277.4-277.4 153 0 277.4 124.5 277.4 277.4 0 152.9-124.5 277.4-277.4 277.4z m0-618.9c11.8 0 21.3-9.6 21.3-21.3V86.3c0-11.8-9.6-21.3-21.3-21.3-11.8 0-21.3 9.6-21.3 21.3v64.1c0 11.7 9.5 21.3 21.3 21.3z m0 683c-11.8 0-21.3 9.6-21.3 21.3v64.1c0 11.8 9.5 21.3 21.3 21.3s21.3-9.6 21.3-21.3V876c0-11.8-9.6-21.3-21.3-21.3zM149.6 491.9H85.5c-11.8 0-21.3 9.5-21.3 21.3s9.6 21.3 21.3 21.3h64.1c11.8 0 21.3-9.6 21.3-21.3 0-11.8-9.6-21.3-21.3-21.3z m789.7 0h-64.1c-11.8 0-21.3 9.5-21.3 21.3s9.6 21.3 21.3 21.3h64.1c11.8 0 21.3-9.6 21.3-21.3 0-11.8-9.6-21.3-21.3-21.3z m0 0" p-id="6466"></path><path d="M241.1 276.5c4.1 4.1 9.7 6.2 15.1 6.2s11-2.1 15.1-6.2c8.3-8.3 8.3-21.8 0-30.2L226 201c-8.3-8.3-21.8-8.3-30.2 0-8.3 8.3-8.3 21.8 0 30.2l45.3 45.3z m543.3 482.9c-8.3-8.3-21.8-8.3-30.2 0-8.3 8.3-8.3 21.8 0 30.2l45.3 45.3c4.1 4.1 9.7 6.2 15.1 6.2s11-2.1 15.1-6.2c8.3-8.3 8.3-21.8 0-30.2l-45.3-45.3z m-537.1 6.3L202 810.9c-8.3 8.3-8.3 21.8 0 30.2 4.1 4.1 9.7 6.2 15.1 6.2s11-2.1 15.1-6.2l45.3-45.3c8.3-8.3 8.3-21.8 0-30.2-8.4-8.3-21.9-8.3-30.2 0.1z m558.4-558.4l-45.3 45.3c-8.3 8.3-8.3 21.8 0 30.2 4.1 4.1 9.7 6.2 15.1 6.2s11-2.1 15.1-6.2l45.3-45.3c8.3-8.3 8.3-21.8 0-30.2-8.4-8.4-21.8-8.4-30.2 0z m0 0" p-id="6467"></path></svg>